<?xml version="1.0" standalone="no"?>
<!DOCTYPE svg PUBLIC "-//W3C//DTD SVG 20010904//EN"
 "http://www.w3.org/TR/2001/REC-SVG-20010904/DTD/svg10.dtd">
<svg version="1.0" xmlns="http://www.w3.org/2000/svg"
 width="700.000000pt" height="700.000000pt" viewBox="0 0 700.000000 700.000000"
 preserveAspectRatio="xMidYMid meet">
<metadata>
Created by potrace 1.11, written by Peter Selinger 2001-2013
</metadata>
<g transform="translate(0.000000,700.000000) scale(0.100000,-0.100000)"
fill="#000000" stroke="none">
<path d="M3625 6839 c-77 -7 -124 -14 -200 -29 -27 -5 -61 -12 -75 -14 -62
-12 -193 -47 -277 -75 -814 -267 -1462 -897 -1779 -1731 -24 -63 -40 -118 -35
-123 6 -6 260 185 471 356 8 6 29 23 46 37 17 14 46 37 65 51 19 15 70 55 115
90 44 35 140 111 214 169 73 58 179 141 234 185 56 44 175 139 266 210 91 71
167 132 170 135 3 3 34 28 70 55 36 27 70 54 76 60 6 5 26 21 44 35 18 14 133
104 254 200 122 97 261 207 311 245 90 70 104 82 160 130 l30 26 -45 -3 c-25
-2 -76 -6 -115 -9z"/>
<path d="M3785 6615 c-165 -130 -310 -245 -321 -255 -12 -9 -57 -45 -100 -78
-82 -63 -518 -403 -544 -425 -8 -7 -52 -41 -98 -77 -83 -65 -279 -219 -337
-265 -16 -13 -88 -70 -160 -125 -147 -115 -135 -106 -385 -305 -207 -165 -247
-197 -300 -240 -20 -16 -54 -43 -75 -60 -34 -26 -132 -105 -245 -196 -34 -27
-37 -34 -53 -131 -10 -57 -20 -119 -22 -138 -3 -19 -7 -46 -10 -60 -8 -35 -14
-277 -8 -327 5 -40 6 -42 27 -31 28 15 235 171 356 268 52 41 136 107 185 145
98 76 113 87 159 126 17 14 83 65 146 114 63 49 117 92 120 95 3 3 34 27 70
55 36 27 121 94 190 148 69 55 140 111 159 126 19 14 73 56 120 93 47 38 91
71 96 76 6 4 30 23 55 43 107 85 316 249 775 609 528 414 510 400 528 415 7 6
32 26 57 45 25 19 52 40 60 47 8 7 128 101 265 208 138 108 259 205 269 215
19 19 19 19 -9 30 -38 14 -171 48 -219 55 -21 3 -48 8 -60 10 -34 9 -112 15
-256 21 l-135 6 -300 -237z"/>
<path d="M4682 6429 c-180 -143 -334 -266 -343 -273 -10 -8 -48 -38 -85 -67
-38 -30 -71 -56 -74 -59 -3 -3 -33 -27 -67 -53 -34 -26 -68 -53 -75 -60 -7 -7
-132 -107 -278 -222 -219 -173 -611 -485 -670 -532 -8 -7 -64 -51 -125 -99
-60 -47 -119 -93 -130 -103 -11 -9 -119 -95 -240 -191 -121 -96 -227 -180
-235 -187 -8 -7 -55 -44 -105 -83 -49 -39 -99 -79 -110 -88 -11 -9 -52 -42
-90 -72 -65 -51 -673 -534 -831 -660 l-71 -56 4 -65 c6 -93 30 -226 59 -326
15 -49 29 -96 31 -105 3 -10 8 -18 12 -18 4 0 43 28 86 63 44 35 181 143 305
241 124 97 232 182 240 189 8 7 87 68 175 137 88 69 169 132 180 141 11 10 74
59 140 111 145 114 615 484 740 583 50 39 131 102 180 140 50 38 92 72 95 75
3 3 25 21 50 40 25 19 52 41 60 47 19 16 627 495 740 583 194 152 1097 863
1115 878 11 10 48 39 83 65 34 27 62 51 62 55 0 7 -130 83 -217 126 -29 15
-105 44 -168 65 l-116 39 -327 -259z"/>
<path d="M5564 6263 c-65 -51 -126 -99 -134 -106 -8 -7 -80 -64 -160 -127 -80
-63 -219 -173 -310 -245 -91 -72 -307 -243 -480 -380 -173 -138 -360 -286
-416 -330 -56 -44 -116 -92 -135 -107 -19 -14 -101 -80 -184 -145 -82 -66
-283 -225 -445 -353 -162 -129 -352 -279 -421 -334 -117 -94 -448 -355 -506
-401 -15 -11 -54 -42 -88 -70 -35 -27 -134 -106 -221 -175 -87 -69 -205 -163
-263 -209 -168 -132 -169 -133 -311 -245 -74 -59 -143 -113 -153 -122 -21 -17
-20 -18 30 -148 36 -92 84 -193 125 -258 l23 -37 510 400 c281 221 529 415
552 432 22 18 121 95 219 172 183 144 452 355 514 403 40 32 142 112 185 146
17 13 161 126 320 251 160 125 306 240 325 255 19 16 136 108 260 205 124 96
239 186 255 199 17 13 120 94 230 180 110 87 215 169 234 184 19 15 134 105
255 200 122 95 228 178 236 185 8 7 101 79 205 161 180 141 255 208 255 232 0
11 -185 154 -200 154 -6 0 -10 4 -10 9 0 5 -9 13 -20 16 -11 3 -26 12 -32 18
-7 7 -38 28 -69 48 l-55 37 -120 -95z"/>
<path d="M6230 5923 c-11 -4 -709 -547 -830 -646 -12 -9 -112 -88 -165 -130
-47 -36 -426 -334 -480 -377 -39 -30 -88 -68 -110 -84 -22 -16 -42 -32 -45
-35 -3 -4 -25 -22 -50 -41 -25 -19 -54 -42 -65 -52 -16 -13 -255 -201 -590
-462 -97 -76 -349 -274 -465 -366 -123 -97 -513 -403 -1190 -934 -140 -110
-307 -241 -370 -291 -63 -50 -135 -106 -160 -125 -25 -19 -52 -41 -60 -47 -27
-22 -331 -262 -460 -362 -69 -54 -204 -159 -300 -235 -96 -76 -190 -150 -209
-164 -54 -42 -103 -84 -145 -122 -21 -19 -44 -39 -52 -43 -25 -14 -15 -40 46
-122 66 -89 214 -243 244 -254 18 -7 90 45 366 266 24 19 244 193 505 398 132
104 314 248 405 320 91 72 197 155 235 185 39 30 72 57 75 60 3 3 57 46 120
95 63 49 122 95 130 102 8 7 76 60 150 118 74 58 143 112 152 120 9 7 67 54
130 102 62 49 257 203 433 342 419 331 615 485 755 595 63 50 117 93 120 96 3
3 23 19 45 36 22 16 49 37 60 46 11 9 283 224 605 478 322 253 592 466 600
473 8 7 199 157 424 335 225 177 419 336 432 353 l23 32 -52 76 c-67 98 -237
272 -257 264z"/>
<path d="M5384 4427 c-38 -28 -71 -54 -74 -57 -3 -4 -171 -136 -375 -295 -203
-159 -431 -337 -505 -395 -74 -58 -301 -236 -505 -395 -203 -160 -377 -295
-385 -302 -19 -15 -174 -137 -220 -172 -33 -26 -237 -186 -995 -779 -165 -130
-327 -256 -360 -282 -33 -26 -217 -170 -410 -321 -192 -151 -404 -317 -470
-369 -108 -84 -175 -144 -175 -157 0 -32 343 -273 388 -273 8 0 41 23 102 73
8 7 64 50 125 97 60 46 117 90 125 97 8 7 141 110 295 229 454 352 629 488
645 501 8 7 142 111 298 232 155 120 297 230 315 244 184 143 276 215 299 232
26 20 470 369 598 470 36 28 148 116 249 196 157 123 876 694 981 780 19 15
98 78 175 140 160 128 153 109 103 254 -34 101 -85 208 -127 266 l-29 39 -68
-53z"/>
<path d="M5679 3827 c-14 -12 -43 -35 -65 -52 -21 -16 -93 -73 -159 -125 -66
-53 -172 -136 -235 -185 -63 -49 -122 -95 -130 -102 -8 -7 -44 -35 -80 -63
-36 -28 -72 -56 -80 -63 -8 -7 -47 -37 -85 -67 -38 -30 -77 -60 -85 -67 -8 -7
-53 -42 -100 -79 -47 -36 -98 -77 -115 -90 -16 -13 -174 -137 -350 -275 -176
-138 -333 -262 -350 -275 -16 -14 -34 -28 -40 -32 -20 -15 -430 -337 -445
-349 -8 -7 -179 -141 -380 -299 -201 -157 -381 -299 -400 -314 -19 -15 -273
-215 -565 -444 -291 -229 -531 -421 -533 -426 -4 -11 205 -117 293 -148 113
-42 192 -60 211 -49 18 10 81 57 119 89 11 9 67 53 125 98 58 44 112 86 120
93 16 13 99 77 115 89 6 4 24 19 41 32 16 14 115 91 220 171 104 81 203 158
219 171 43 34 915 712 948 737 16 12 46 36 66 52 21 17 51 40 67 52 16 12 94
73 174 135 80 63 181 141 225 176 44 34 85 65 90 70 6 4 134 104 285 221 151
117 291 226 310 241 34 27 247 193 306 237 16 12 40 31 54 42 14 11 99 78 190
149 165 128 165 129 164 168 -4 155 -47 372 -95 477 -15 32 -17 33 -50 4z"/>
<path d="M5700 3004 c-52 -41 -122 -96 -154 -121 -33 -25 -64 -49 -70 -54 -11
-9 -156 -123 -217 -170 -19 -15 -82 -64 -140 -110 -59 -46 -162 -127 -229
-179 -67 -52 -147 -115 -179 -140 -73 -58 -95 -75 -281 -220 -85 -67 -164
-128 -174 -137 -11 -8 -62 -49 -115 -90 -53 -41 -109 -85 -126 -98 -16 -13
-66 -53 -110 -87 -44 -34 -82 -65 -85 -68 -3 -4 -32 -26 -65 -51 -33 -24 -62
-46 -65 -49 -3 -3 -48 -39 -100 -80 -52 -41 -102 -80 -110 -87 -33 -27 -938
-738 -975 -767 -22 -17 -42 -33 -45 -36 -3 -3 -65 -52 -138 -110 -73 -57 -129
-107 -125 -111 26 -24 251 -72 423 -89 58 -5 125 -12 150 -15 l45 -5 530 416
c292 228 544 425 560 438 17 13 127 100 245 192 118 93 307 241 420 329 113
88 207 162 210 165 3 3 34 27 70 55 36 27 72 55 80 62 8 7 137 107 285 223
149 116 297 233 330 259 33 26 99 78 147 116 48 37 90 75 92 84 5 16 24 113
33 160 2 14 6 98 8 186 3 155 -3 238 -21 255 -5 4 -52 -25 -104 -66z"/>
<path d="M5600 2109 c-36 -28 -74 -58 -85 -67 -11 -10 -139 -111 -285 -226
-294 -232 -398 -315 -450 -356 -45 -37 -486 -387 -531 -422 -48 -38 -314 -248
-509 -403 -91 -72 -185 -146 -210 -165 -25 -19 -47 -37 -50 -40 -3 -3 -78 -64
-167 -134 -90 -71 -163 -133 -163 -138 0 -15 207 9 395 46 72 14 205 49 290
76 159 51 186 63 490 219 301 154 538 339 790 615 44 47 173 217 224 293 153
230 244 427 336 731 9 32 -2 28 -75 -29z"/>
</g>
</svg>
