<?xml version="1.0" encoding="utf-8"?>
<svg version="1.1" id="Layer_1" xmlns="http://www.w3.org/2000/svg" xmlns:xlink="http://www.w3.org/1999/xlink" x="0px" y="0px"
	 viewBox="0 0 657 100" enable-background="new 0 0 657 100" xml:space="preserve">
<g>
	<path fill="#63A70A" d="M655.8,1.7c-0.4-0.5-1-0.7-1.8-0.7c-0.7,0-1.3,0.3-1.8,0.7c-0.4,0.5-0.7,1.3-0.7,2.2v6h-8.9v-6
		c0-1-0.2-1.7-0.7-2.2c-0.4-0.5-1-0.7-1.8-0.7c0,0-0.2,0-0.3,0h-18.3c-0.8,0-1.4,0.2-1.8,0.5c-0.4,0.4-0.6,0.9-0.6,1.5
		c0,0.6,0.2,1.1,0.6,1.5c0.4,0.4,1,0.5,1.9,0.5h5.3v15.9c0,1,0.2,1.8,0.7,2.2c0.5,0.5,1,0.7,1.8,0.7c0.7,0,1.3-0.2,1.7-0.7
		c0.4-0.5,0.7-1.2,0.7-2.3V5h6v15.9c0,1,0.2,1.7,0.7,2.2c0.4,0.5,1,0.7,1.8,0.7c0.7,0,1.3-0.3,1.8-0.7c0.4-0.5,0.7-1.2,0.7-2.2v-7
		h8.9v7c0,1,0.2,1.7,0.7,2.2c0.4,0.5,1,0.7,1.8,0.7c0.7,0,1.3-0.3,1.8-0.7c0.5-0.5,0.7-1.2,0.7-2.2V3.9
		C656.5,2.9,656.2,2.1,655.8,1.7z"/>
	<g>
		<path fill="#fff" d="M37.5,96.2H27.4c-4.6,0-8.4-1-11.5-2.8c-3.1-1.9-5.4-4.4-6.8-7.4c-1.5-3-2.2-6.1-2.2-9.3V48.2H0.9V32.7
			h6.1V13.8H27v18.9h10.5v15.5H27v27c0,2.7,1.4,4,4.1,4h6.4V96.2z"/>
		<path fill="#fff" d="M101.4,69.8H61.9c0,2.8,1,5.3,3.1,7.2c2.1,2,4.9,3,8.5,3c3.4,0,6-0.4,7.9-1.3c1.9-0.9,3.8-2.3,5.7-4.1
			l12,11.9c-3.6,3.6-7.3,6.3-11.1,8c-3.8,1.7-8.6,2.5-14.6,2.5c-20.9,0-31.4-11.2-31.4-33.8c0-10.6,2.7-18.9,8.2-24.8
			c5.5-6,12.6-8.9,21.4-8.9c6.2,0,11.5,1.4,16,4.1c4.5,2.8,7.9,6.5,10.2,11.2s3.5,10,3.5,16V69.8z M81.5,56.3c0-2-0.4-3.7-1.1-5.1
			c-0.6-1.5-1.7-2.7-3.2-3.7c-1.5-1-3.3-1.5-5.5-1.5c-2.2,0-4,0.5-5.5,1.5c-1.5,1-2.5,2.2-3.1,3.7c-0.7,1.5-1.1,3.2-1.1,5.1H81.5z"
			/>
		<path fill="#fff" d="M171.6,96.2h-24.9L132.8,72l-3.9,4.3v19.9h-20.1V8.8h20.1v44.4l17.8-23.1h24.2l-24.3,27.4L171.6,96.2z"/>
		<path fill="#fff" d="M230.7,96.2h-20.1V56.7c0-3.4-0.9-5.8-2.6-7.1c-1.7-1.3-3.6-2-5.5-2c-1.9,0-3.7,0.7-5.5,2
			c-1.7,1.4-2.6,3.7-2.6,7.1v39.5h-20.1V30.1h19.7v5.4c1.9-1.9,4.3-3.4,7.1-4.5c2.8-1.1,5.6-1.6,8.2-1.6c6.1,0,11.1,1.9,14.8,5.6
			c2.6,2.5,4.4,5.3,5.3,8.3c0.9,3,1.4,6.6,1.4,10.5V96.2z"/>
		<path fill="#fff" d="M260.6,23.4h-20.1V8.1h20.1V23.4z M260.6,96.2h-20.1V32.7h20.1V96.2z"/>
		<path fill="#fff" d="M333.6,96.2h-24.9L294.9,72l-3.9,4.3v19.9h-20.1V8.8H291v44.4l17.8-23.1H333l-24.3,27.4L333.6,96.2z"/>
		<path fill="#fff" d="M392.1,96.2h-20.1v-40c0-3.2-0.8-5.4-2.5-6.7c-1.7-1.3-3.4-1.9-5.2-1.9c-1.8,0-3.6,0.7-5.2,2
			c-1.7,1.3-2.5,3.5-2.5,6.6v40h-20.1V8.8h20.1v26.7c2-2,4.3-3.5,6.8-4.6c2.5-1,5.1-1.6,7.7-1.6c4.6,0,8.5,1,11.6,3.1
			c3.2,2.1,5.5,4.9,7.1,8.6c1.6,3.7,2.4,7.8,2.4,12.2V96.2z"/>
		<path fill="#fff" d="M457.7,96.2H438v-5.4c-2,2-4.3,3.5-7.1,4.5c-2.8,1.1-5.5,1.6-8.2,1.6c-6.1,0-11-1.9-14.9-5.6
			c-2.6-2.6-4.3-5.3-5.2-8.4c-0.9-3-1.4-6.5-1.4-10.5V30.1h20.1v39.6c0,3.3,0.9,5.6,2.6,7c1.7,1.4,3.6,2,5.5,2c1.9,0,3.7-0.7,5.5-2
			c1.7-1.3,2.6-3.7,2.6-7V30.1h20.1V96.2z"/>
		<path fill="#fff" d="M518.9,74.6c0,5-1.3,9.2-3.8,12.5c-2.6,3.3-6,5.8-10.3,7.4c-4.3,1.6-9.1,2.4-14.4,2.4
			c-4.1,0-7.6-0.2-10.6-0.6c-3-0.4-6.1-1.3-9.2-2.6c-3.1-1.4-6.1-3.5-9-6.4l13.1-13.1c3.7,3.7,9,5.6,16.1,5.6c2,0,3.9-0.3,5.8-1
			c1.9-0.7,2.8-1.8,2.8-3.3c0-2.5-1.6-3.9-4.8-4.2l-10.2-1c-3.8-0.4-7.2-1.2-10.1-2.7c-2.9-1.4-5.1-3.5-6.7-6.2
			c-1.6-2.7-2.3-6.1-2.3-10.3c0-3.5,0.7-6.6,2.2-9.4c1.5-2.8,3.4-5.1,5.8-6.9c2.4-1.8,5.2-3.2,8.4-4.1c3.1-0.9,6.4-1.4,9.9-1.4
			c5.9,0,10.9,0.6,15.1,1.7c4.2,1.2,7.8,3.3,10.9,6.4L505,49.9c-2.6-2.6-7.3-4-14-4c-2.2,0-3.8,0.4-4.9,1.2
			c-1.1,0.8-1.6,1.7-1.6,2.6c0,2.1,1.4,3.3,4.3,3.6l10.2,1c4.5,0.4,8.3,1.5,11.2,3.3c3,1.8,5.1,4.2,6.6,7
			C518.2,67.7,518.9,71,518.9,74.6z"/>
		<path fill="#fff" d="M581.3,69.8h-39.5c0,2.8,1.1,5.3,3.2,7.2c2.1,2,4.9,3,8.5,3c3.4,0,6-0.4,7.9-1.3c1.9-0.9,3.8-2.3,5.7-4.1
			l12,11.9c-3.6,3.6-7.3,6.3-11.1,8c-3.8,1.7-8.6,2.5-14.6,2.5c-20.9,0-31.4-11.2-31.4-33.8c0-10.6,2.7-18.9,8.2-24.8
			c5.5-6,12.6-8.9,21.4-8.9c6.2,0,11.5,1.4,16,4.1c4.5,2.8,7.9,6.5,10.2,11.2c2.3,4.7,3.5,10,3.5,16V69.8z M561.4,56.3
			c0-2-0.4-3.7-1.1-5.1c-0.6-1.5-1.7-2.7-3.2-3.7c-1.5-1-3.3-1.5-5.5-1.5c-2.2,0-4,0.5-5.5,1.5c-1.5,1-2.5,2.2-3.1,3.7
			c-0.7,1.5-1.1,3.2-1.1,5.1H561.4z"/>
		<path fill="#fff" d="M620.7,96.2h-10.1c-4.6,0-8.4-1-11.5-2.8c-3.1-1.9-5.4-4.4-6.8-7.4c-1.5-3-2.2-6.1-2.2-9.3V48.2H584V32.7
			h6.1V13.8h20.1v18.9h10.5v15.5h-10.5v27c0,2.7,1.4,4,4.1,4h6.4V96.2z"/>
	</g>
</g>
</svg>
