<?xml version="1.0" encoding="utf-8"?>
<!-- Generator: Adobe Illustrator 20.1.0, SVG Export Plug-In . SVG Version: 6.00 Build 0)  -->
<svg version="1.1" id="Layer_2" xmlns="http://www.w3.org/2000/svg" xmlns:xlink="http://www.w3.org/1999/xlink" x="0px" y="0px"
	 viewBox="0 0 500 500" style="enable-background:new 0 0 500 500;" xml:space="preserve">
<style type="text/css">
	.st0{fill:#67AE3E;}
	.st1{fill:#FFFFFF;}
	.st2{fill:#EC1A3B;}
</style>
<g>
	<path class="st0" d="M500,250.6c-0.5,138.1-112.8,249.6-250.9,249.1C111.1,499.2-0.5,386.9,0,248.8C0.5,110.8,112.8-0.8,250.9-0.3
		C389,0.2,500.5,112.5,500,250.6z"/>
	<g>
		<path class="st1" d="M369.1,273.7c-3.4-3.6-7.9-5.6-13.5-5.6c-5.5,0-10,1.9-13.3,5.5c-3.3,3.8-5.1,9.4-5.1,16.9l-0.2,44.9
			l-67.2-0.2l0.2-44.9c0-7.6-1.7-13.2-5.1-16.9c-3.4-3.6-7.9-5.6-13.5-5.6c-0.2,0-1.7,0,4.9,0l-155.2-0.6c-13.3,0-17.9,1.3-21.1,4
			c-3.1,2.8-4.8,6.4-4.8,11.2c0,4.6,1.5,8.2,4.5,11.1c3,2.7,7.8,4.1,14.1,4.1l47.5,0.2l-0.4,120c0,7.5,1.7,13.2,5.2,17
			c3.4,3.7,7.9,5.6,13.4,5.6c5.4,0,9.8-1.8,13.2-5.5c3.4-3.7,5.1-9.4,5.1-17l0.4-119.9l54.8,0.2l-0.4,120c0,7.5,1.7,13.1,4.9,17
			c3.3,3.7,7.7,5.6,13.3,5.6c5.5,0,10-1.9,13.5-5.6c3.4-3.7,5.2-9.4,5.2-16.9l0.2-52.9l67.2,0.2l-0.2,52.9c0,7.5,1.6,13.1,4.9,17
			c3.3,3.7,7.7,5.6,13.3,5.7c5.4,0,10-1.9,13.5-5.6c3.5-3.7,5.2-9.4,5.3-16.9l0.5-128C374.2,283.1,372.5,277.5,369.1,273.7z"/>
		<path class="st1" d="M138.7,227.7c3.4,3.6,7.8,5.6,13.4,5.6c5.4,0,9.9-1.9,13.2-5.5c3.3-3.8,5.1-9.4,5.1-16.8l0.5-128.1
			c0-7.5-1.6-13.1-4.9-16.9c-3.3-3.7-7.7-5.6-13.2-5.6c-5.4,0-10,1.9-13.5,5.5c-3.5,3.7-5.2,9.4-5.3,16.9l-0.5,128.1
			C133.6,218.3,135.3,224,138.7,227.7z"/>
		<path class="st2" d="M199.7,125.6c0.2-60.9,65-91.5,100.8-37.3c40.6-53.8,100.7-22.9,100.5,38c-0.2,63.9-101,114.2-101,114.2
			S199.5,190.7,199.7,125.6z"/>
	</g>
</g>
</svg>
