<?xml version="1.0" encoding="utf-8"?>
<!-- Generator: Adobe Illustrator 20.1.0, SVG Export Plug-In . SVG Version: 6.00 Build 0)  -->
<svg version="1.1" id="Lager_1" xmlns="http://www.w3.org/2000/svg" xmlns:xlink="http://www.w3.org/1999/xlink" x="0px" y="0px"
	 viewBox="0 0 159 28.3" style="enable-background:new 0 0 159 28.3;" xml:space="preserve">
<style type="text/css">
	.st0{fill:#008658;}
	.st1{fill:#FFFFFF;}
</style>
<g>
	<path class="st1" d="M10.5,4.9L10.5,4.9L6.3,23.2c-0.7,3.2-0.7,3.8-0.2,5.1H0c1.1-1.3,1.4-1.9,2.1-5.1L6.2,5.1
		C6.9,1.9,6.9,1.3,6.4,0H20l5.2,23.1h0.1l4-18c0.7-3.2,0.7-3.8,0.2-5.1h6.1c-1.1,1.3-1.4,1.9-2.1,5.1l-5.2,23.2H15.8L10.5,4.9z"/>
	<path class="st1" d="M37.2,8.3C38.5,2.2,41.3,0,45.5,0h14.6c4.1,0,6,2.2,4.6,8.3L62,20c-1.4,6.1-4.2,8.3-8.3,8.3H39.1
		c-4.1,0-6-2.2-4.6-8.3L37.2,8.3z M43.9,21.8c-0.3,1.4,0.2,1.8,1.5,1.8h4.2c1.3,0,2-0.4,2.3-1.8l3.4-15.3c0.3-1.4-0.2-1.8-1.5-1.8
		h-4.2c-1.3,0-2,0.4-2.3,1.8L43.9,21.8z"/>
	<path class="st1" d="M76.9,16l-1.7,7.4c-0.6,2.7-0.5,3.8-0.3,4.9H63.7c0.7-1.1,1.3-2.2,1.9-4.9l4.2-18.6c0.6-2.7,0.5-3.8,0.1-4.9
		h21C95.2,0,97,1.5,96,6.2l-1.2,5.2c-0.9,4.2-2.8,4.4-4.9,4.6l1.7,8c0.4,1.8,0.5,3.3,1.1,4.3H81.8L79.9,16H76.9z M78,11.3h5.5
		c1.2,0,1.6-0.2,1.9-1.6l0.8-3.5c0.3-1.4,0-1.6-1.2-1.6h-5.5L78,11.3z"/>
	<path class="st1" d="M108.3,16l-1.7,7.4c-0.6,2.7-0.5,3.8-0.3,4.9H95.1c0.7-1.1,1.3-2.2,1.9-4.9l4.2-18.6c0.6-2.7,0.5-3.8,0.1-4.9
		h21c4.5,0,6.3,1.5,5.2,6.2l-1.2,5.2c-0.9,4.2-2.8,4.4-4.9,4.6l1.7,8c0.4,1.8,0.5,3.3,1.1,4.3h-10.9L111.3,16H108.3z M109.4,11.3
		h5.5c1.2,0,1.6-0.2,1.9-1.6l0.8-3.5c0.3-1.4,0-1.6-1.2-1.6h-5.5L109.4,11.3z"/>
	<path class="st1" d="M135.5,20.7l-2.6,3.9c-0.4,0.5-0.6,1.1-0.7,1.7c-0.2,1-0.2,1.1,0.1,2h-7.2c2-2.2,2.7-3,4.1-5.1l14.1-21.6
		L142.5,0h11.5l3.6,24.4c0.2,1.5,0.7,2.8,1.4,3.9h-12.8c0.7-1.1,0.8-1.2,1-1.9c0.1-0.7,0.2-1.5,0.1-2.1l-0.6-3.6H135.5z M146.1,16
		l-1.5-9.6l-6,9.6H146.1z"/>
</g>
</svg>
