<?xml version="1.0" encoding="utf-8"?>
<!-- Generator: Adobe Illustrator 20.1.0, SVG Export Plug-In . SVG Version: 6.00 Build 0)  -->
<svg version="1.1" id="Lager_1" xmlns="http://www.w3.org/2000/svg" xmlns:xlink="http://www.w3.org/1999/xlink" x="0px" y="0px"
	 viewBox="0 0 203.1 45" style="enable-background:new 0 0 203.1 45;" xml:space="preserve">
<style type="text/css">
	.st0{fill:#008658;}
</style>
<g>
	<path class="st0" d="M21.7,2.5l-15.2,12l-0.1-0.1c2.2-6.6,8.2-11.6,15.4-12L21.7,2.5z"/>
	<path class="st0" d="M23.6,2.4C17.7,7.1,11.8,11.7,6,16.3c-0.2,1.3-0.6,2.8-0.3,4.1l1.1-0.8L27.7,3.1l0-0.1
		C26.4,2.6,25,2.4,23.6,2.4z"/>
	<path class="st0" d="M29.2,3.5L5.7,22c0,1.1,0.3,2.2,0.6,3.1l0.1,0L31.4,5.5l0.9-0.7C31.3,4.1,30.3,3.7,29.2,3.5z"/>
	<path class="st0" d="M33.3,5.5L6.8,26.4C7.1,27.3,7.5,28.3,8,29L35.4,7.5l0.3-0.4C35,6.5,34.1,5.9,33.3,5.5z"/>
	<path class="st0" d="M36.5,8.1l-34,26.7l-0.9,0.8c0.5,0.8,1.1,1.5,1.8,2.1l0.2,0.1l34.6-27.2l0.3-0.4c-0.5-0.8-1.1-1.5-1.8-2.1
		L36.5,8.1z"/>
	<path class="st0" d="M31.9,16.8L4.7,38.1l-0.4,0.4c0.7,0.8,1.6,1.3,2.4,1.7c8.9-6.9,17.7-13.7,26.5-20.7
		C32.9,18.6,32.5,17.6,31.9,16.8z"/>
	<path class="st0" d="M33.5,20.6L7.8,40.8l0,0.1c0.9,0.5,1.9,1,3,1.2l23.4-18.2C34.1,22.8,34,21.6,33.5,20.6z"/>
	<path class="st0" d="M34,25.3C26.7,31,19.4,36.7,12.1,42.5l0.1,0.1c1.2,0.4,2.4,0.5,3.7,0.6l18-14.1c0.3-1.2,0.4-2.4,0.2-3.7
		L34,25.3z"/>
	<path class="st0" d="M33.3,30.8L17.9,43.1l0,0.1c2.3-0.2,4.6-0.7,6.5-1.8C28.5,39.5,32.2,35.4,33.3,30.8z"/>
</g>
<g>
	<path class="st0" d="M53.3,13.5L53.3,13.5l-4.2,18.4c-0.7,3.2-0.7,3.8-0.2,5.1h-6.1c1.1-1.3,1.4-1.9,2.1-5.1l4.1-18.1
		c0.7-3.2,0.7-3.8,0.2-5.1h13.7l5.2,23.1H68l4-18c0.7-3.2,0.7-3.8,0.2-5.1h6.1c-1.1,1.3-1.4,1.9-2.1,5.1l-5.2,23.2H58.5L53.3,13.5z"
		/>
	<path class="st0" d="M79.9,16.9c1.4-6.1,4.2-8.3,8.3-8.3h14.6c4.1,0,6,2.2,4.6,8.3l-2.6,11.7c-1.4,6.1-4.2,8.3-8.3,8.3H81.9
		c-4.1,0-6-2.2-4.6-8.3L79.9,16.9z M86.6,30.4c-0.3,1.4,0.2,1.8,1.5,1.8h4.2c1.3,0,2-0.4,2.3-1.8l3.4-15.3c0.3-1.4-0.2-1.8-1.5-1.8
		h-4.2c-1.3,0-2,0.4-2.3,1.8L86.6,30.4z"/>
	<path class="st0" d="M119.7,24.6l-1.7,7.4c-0.6,2.7-0.5,3.8-0.3,4.9h-11.3c0.7-1.1,1.3-2.2,1.9-4.9l4.2-18.6
		c0.6-2.7,0.5-3.8,0.1-4.9h21c4.5,0,6.3,1.5,5.2,6.2l-1.2,5.2c-0.9,4.2-2.8,4.4-4.9,4.6l1.7,8c0.4,1.8,0.5,3.3,1.1,4.3h-10.9
		l-1.9-12.3H119.7z M120.7,19.9h5.5c1.2,0,1.6-0.2,1.9-1.6l0.8-3.5c0.3-1.4,0-1.6-1.2-1.6h-5.5L120.7,19.9z"/>
	<path class="st0" d="M151.1,24.6l-1.7,7.4c-0.6,2.7-0.5,3.8-0.3,4.9h-11.3c0.7-1.1,1.3-2.2,1.9-4.9l4.2-18.6
		c0.6-2.7,0.5-3.8,0.1-4.9h21c4.5,0,6.3,1.5,5.2,6.2l-1.2,5.2c-0.9,4.2-2.8,4.4-4.9,4.6l1.7,8c0.4,1.8,0.5,3.3,1.1,4.3h-10.9
		l-1.9-12.3H151.1z M152.1,19.9h5.5c1.2,0,1.6-0.2,1.9-1.6l0.8-3.5c0.3-1.4,0-1.6-1.2-1.6h-5.5L152.1,19.9z"/>
	<path class="st0" d="M178.3,29.3l-2.6,3.9c-0.4,0.5-0.6,1.1-0.7,1.7c-0.2,1-0.2,1.1,0.1,2h-7.2c2-2.2,2.7-3,4.1-5.1L186,10.2
		l-0.8-1.6h11.5l3.6,24.4c0.2,1.5,0.7,2.8,1.4,3.9H189c0.7-1.1,0.8-1.2,1-1.9c0.1-0.7,0.2-1.5,0.1-2.1l-0.6-3.6H178.3z M188.9,24.6
		l-1.5-9.6l-6,9.6H188.9z"/>
</g>
</svg>
